<svg width="59" height="59" viewBox="0 0 59 59" fill="none" xmlns="http://www.w3.org/2000/svg">
<path d="M31.2454 27.7545C30.7859 27.3041 30.1681 27.0518 29.5246 27.0518C28.8811 27.0518 28.2633 27.3041 27.8037 27.7545L20.4287 34.8837C20.1679 35.0989 19.9543 35.3657 19.8012 35.6672C19.6481 35.9688 19.559 36.2987 19.5392 36.6363C19.5195 36.974 19.5696 37.312 19.6865 37.6294C19.8034 37.9467 19.9845 38.2366 20.2185 38.4807C20.4525 38.7249 20.7343 38.9182 21.0464 39.0484C21.3585 39.1787 21.6942 39.2432 22.0323 39.2378C22.3705 39.2325 22.7039 39.1574 23.0117 39.0173C23.3195 38.8772 23.5951 38.6751 23.8212 38.4237L27.0417 35.3016V49.1666C27.0417 49.8186 27.3007 50.4439 27.7617 50.9049C28.2227 51.3659 28.848 51.6249 29.5 51.6249C30.152 51.6249 30.7773 51.3659 31.2383 50.9049C31.6993 50.4439 31.9583 49.8186 31.9583 49.1666V35.4245L35.1296 38.6203C35.3581 38.8507 35.63 39.0336 35.9296 39.1584C36.2291 39.2832 36.5505 39.3475 36.875 39.3475C37.1995 39.3475 37.5208 39.2832 37.8204 39.1584C38.12 39.0336 38.3919 38.8507 38.6204 38.6203C38.8508 38.3918 39.0337 38.1199 39.1585 37.8203C39.2833 37.5208 39.3476 37.1994 39.3476 36.8749C39.3476 36.5504 39.2833 36.2291 39.1585 35.9295C39.0337 35.6299 38.8508 35.358 38.6204 35.1295L31.2454 27.7545Z" fill="white"/>
<path d="M43.4387 17.2084C42.4356 14.3102 40.5541 11.7967 38.0558 10.0177C35.5576 8.23872 32.5669 7.28271 29.5 7.28271C26.4331 7.28271 23.4424 8.23872 20.9442 10.0177C18.4459 11.7967 16.5643 14.3102 15.5612 17.2084C13.3526 17.5043 11.2658 18.3949 9.52431 19.7852C7.78278 21.1755 6.45197 23.0131 5.67423 25.1014C4.89649 27.1897 4.70108 29.4501 5.10891 31.6409C5.51674 33.8316 6.51247 35.8703 7.98957 37.5388C8.16799 37.8531 8.41352 38.1242 8.70865 38.3328C9.00379 38.5413 9.34128 38.6823 9.6971 38.7455C10.0529 38.8088 10.4183 38.7928 10.7672 38.6988C11.1162 38.6047 11.4401 38.4349 11.7159 38.2013C11.9917 37.9678 12.2127 37.6763 12.363 37.3477C12.5133 37.019 12.5893 36.6613 12.5856 36.2999C12.5819 35.9385 12.4986 35.5824 12.3415 35.2569C12.1845 34.9314 11.9576 34.6446 11.6771 34.4168C10.726 33.3534 10.1037 32.0371 9.88565 30.6272C9.6676 29.2174 9.86314 27.7745 10.4486 26.4736C11.034 25.1726 11.9842 24.0694 13.184 23.2975C14.3838 22.5257 15.7817 22.1185 17.2083 22.1251H17.4542C18.0293 22.1367 18.5902 21.9462 19.0394 21.5869C19.4886 21.2275 19.7976 20.7221 19.9125 20.1584C20.3639 17.9355 21.5699 15.937 23.3261 14.5016C25.0824 13.0661 27.2809 12.2819 29.5492 12.2819C31.8174 12.2819 34.0159 13.0661 35.7722 14.5016C37.5285 15.937 38.7344 17.9355 39.1858 20.1584C39.3007 20.7221 39.6097 21.2275 40.0589 21.5869C40.5081 21.9462 41.069 22.1367 41.6442 22.1251H41.7917C43.2183 22.1185 44.6162 22.5257 45.816 23.2975C47.0158 24.0694 47.966 25.1726 48.5514 26.4736C49.1368 27.7745 49.3324 29.2174 49.1143 30.6272C48.8963 32.0371 48.274 33.3534 47.3229 34.4168C47.1064 34.6596 46.9402 34.943 46.834 35.2506C46.7278 35.5581 46.6837 35.8837 46.7043 36.2084C46.7249 36.5331 46.8097 36.8505 46.9539 37.1422C47.098 37.4339 47.2987 37.694 47.5442 37.9076C47.9923 38.3028 48.5691 38.5213 49.1667 38.5222C49.5157 38.5217 49.8606 38.447 50.1786 38.3029C50.4965 38.1587 50.78 37.9486 51.0104 37.6863C52.5285 36.0207 53.5594 33.9697 53.9905 31.7577C54.4215 29.5456 54.2361 27.2576 53.4546 25.1439C52.673 23.0301 51.3253 21.1718 49.5589 19.7723C47.7925 18.3728 45.6753 17.4858 43.4387 17.2084V17.2084Z" fill="white"/>
</svg>
