<svg width="68" height="68" viewBox="0 0 68 68" fill="none" xmlns="http://www.w3.org/2000/svg">
<path fill-rule="evenodd" clip-rule="evenodd" d="M35.1333 46.75H38.9583C48.739 46.75 56.6667 38.8223 56.6667 29.0417C56.6667 19.261 48.739 11.3333 38.9583 11.3333H29.0417C19.261 11.3333 11.3333 19.261 11.3333 29.0417C11.3333 40.46 17.8443 47.2883 24.6925 51.4052C28.1293 53.4707 31.5917 54.8052 34.2068 55.6226C34.5298 55.7232 34.8401 55.8167 35.1333 55.9017V46.75ZM37.9667 59.5C37.9667 59.5 36.8843 59.3172 35.1333 58.8441C27.7525 56.8437 8.5 49.6542 8.5 29.0417C8.5 17.697 17.697 8.5 29.0417 8.5H38.9583C50.303 8.5 59.5 17.697 59.5 29.0417C59.5 40.3863 50.303 49.5833 38.9583 49.5833H37.9667V59.5Z" fill="#6B7280"/>
<path fill-rule="evenodd" clip-rule="evenodd" d="M39.2289 17.6828C40.6881 18.6518 41.7874 20.2229 41.7874 22.3295C41.7874 24.565 40.8864 26.2083 39.4259 27.2142C38.8492 27.6046 38.2128 27.8984 37.5417 28.084V30.2543C37.5417 30.8179 37.3178 31.3584 36.9193 31.7569C36.5208 32.1554 35.9803 32.3793 35.4167 32.3793C34.8531 32.3793 34.3126 32.1554 33.9141 31.7569C33.5156 31.3584 33.2917 30.8179 33.2917 30.2543V26.2919C33.2916 25.7528 33.4964 25.2337 33.8646 24.84C34.2329 24.4462 34.7371 24.2071 35.275 24.1712C36.0599 24.1187 36.6549 23.9629 37.0133 23.715C37.1586 23.6188 37.2759 23.4858 37.3533 23.3297C37.4383 23.1597 37.5374 22.8565 37.5374 22.3281C37.5374 21.8847 37.3646 21.5461 36.8759 21.2202C36.3205 20.8519 35.428 20.5799 34.3556 20.5459C33.2959 20.5119 32.266 20.7187 31.5081 21.0857C30.7488 21.454 30.4697 21.8677 30.3918 22.1722C30.3224 22.4426 30.2004 22.6966 30.0329 22.9197C29.8653 23.1429 29.6554 23.3309 29.4152 23.473C29.175 23.6151 28.9092 23.7084 28.6329 23.7478C28.3566 23.7871 28.0753 23.7716 27.8049 23.7022C27.5346 23.6329 27.2806 23.5109 27.0574 23.3433C26.8343 23.1758 26.6463 22.9659 26.5042 22.7257C26.3621 22.4855 26.2687 22.2197 26.2294 21.9434C26.1901 21.6671 26.2055 21.3857 26.2749 21.1154C26.7637 19.2157 28.1846 17.9747 29.6551 17.2621C31.1284 16.5467 32.861 16.2449 34.4902 16.2973C36.1094 16.3483 37.8378 16.7563 39.2289 17.6828Z" fill="#6B7280"/>
<path d="M38.25 38.25C38.25 39.0014 37.9515 39.7221 37.4201 40.2535C36.8888 40.7848 36.1681 41.0833 35.4166 41.0833C34.6652 41.0833 33.9445 40.7848 33.4132 40.2535C32.8818 39.7221 32.5833 39.0014 32.5833 38.25C32.5833 37.4985 32.8818 36.7779 33.4132 36.2465C33.9445 35.7152 34.6652 35.4167 35.4166 35.4167C36.1681 35.4167 36.8888 35.7152 37.4201 36.2465C37.9515 36.7779 38.25 37.4985 38.25 38.25Z" fill="#6B7280"/>
</svg>
